<svg width="290" height="56" viewBox="0 0 290 56" fill="none" xmlns="http://www.w3.org/2000/svg">
<g id="icons/city-beach-club">
<g id="Group 40">
<path id="Fill 1" fill-rule="evenodd" clip-rule="evenodd" d="M271.875 5.72369H278.553V7.08728H276.294V15.2632H274.133V7.08728H271.875V5.72369Z" fill="#FEFEFE"/>
<path id="Fill 2" fill-rule="evenodd" clip-rule="evenodd" d="M285.887 5.72369L284.338 12.4954L282.665 5.72369H279.507V15.2632H281.489V8.51687L283.184 15.2632H285.329L286.897 8.42221V15.2632H289.046V5.72369H285.887Z" fill="#FEFEFE"/>
<g id="Group 39">
<path id="Fill 3" fill-rule="evenodd" clip-rule="evenodd" d="M77.4854 21.0421V24.1457C77.4854 26.0357 76.9548 27.481 75.8951 28.4832C74.8355 29.4854 73.2713 29.9851 71.2025 29.9851C69.1352 29.9851 67.5696 29.4796 66.5114 28.4673C65.4503 27.455 64.9211 26.0038 64.9211 24.1124V11.9645C64.9211 10.0746 65.4503 8.62342 66.5114 7.6111C67.5696 6.59877 69.1352 6.09189 71.2025 6.09189C73.2713 6.09189 74.8355 6.59877 75.8951 7.6111C76.9548 8.62342 77.4854 10.0746 77.4854 11.9645V14.2354H73.5011V11.7328C73.5011 10.887 73.3031 10.2918 72.9084 9.94712C72.5109 9.60244 71.9803 9.42865 71.3182 9.42865C70.6532 9.42865 70.1241 9.60244 69.7294 9.94857C69.3319 10.2947 69.1352 10.8899 69.1352 11.7372V24.376C69.1352 25.2218 69.3319 25.8127 69.7294 26.1472C70.1241 26.4818 70.6532 26.6483 71.3182 26.6483C71.9803 26.6483 72.5109 26.4818 72.9084 26.1472C73.3031 25.8141 73.5011 25.2247 73.5011 24.3789V21.0421H77.4854Z" fill="#FEFEFE"/>
<mask id="mask0" mask-type="alpha" maskUnits="userSpaceOnUse" x="0" y="0" width="290" height="56">
<path id="Clip 6" fill-rule="evenodd" clip-rule="evenodd" d="M0 55.3289H289.437V0.270935H0V55.3289Z" fill="white"/>
</mask>
<g mask="url(#mask0)">
<path id="Fill 5" fill-rule="evenodd" clip-rule="evenodd" d="M80.2443 29.7196H84.4584V6.36081H80.2443V29.7196Z" fill="#FEFEFE"/>
<path id="Fill 7" fill-rule="evenodd" clip-rule="evenodd" d="M86.9104 6.36038H99.9358V9.69714H95.528V29.7192H91.3153V9.69714H86.9104V6.36038Z" fill="#FEFEFE"/>
<path id="Fill 8" fill-rule="evenodd" clip-rule="evenodd" d="M107.021 21.9771L101.695 6.36069H106.102L109.32 17.0053L112.536 6.36069H116.563L111.235 21.9771V29.7195H107.021V21.9771Z" fill="#FEFEFE"/>
<path id="Fill 9" fill-rule="evenodd" clip-rule="evenodd" d="M130.005 19.2065V26.3825H132.418C133.132 26.3825 133.674 26.2146 134.045 25.8815C134.417 25.5469 134.602 24.9473 134.602 24.0784V22.0422C134.602 20.9545 134.39 20.2072 133.967 19.8075C133.548 19.4078 132.851 19.2065 131.881 19.2065H130.005ZM130.005 9.6973V15.8697H131.651C132.442 15.8697 133.061 15.6916 133.509 15.3353C133.957 14.9819 134.18 14.3346 134.18 13.4005V12.0985C134.18 11.2542 134.008 10.6416 133.662 10.2636C133.318 9.88557 132.776 9.6973 132.036 9.6973H130.005ZM132.15 6.36053C134.345 6.36053 135.935 6.80515 136.918 7.69437C137.901 8.58504 138.394 9.93046 138.394 11.7321V12.5677C138.394 13.7683 138.176 14.7589 137.745 15.5366C137.308 16.3158 136.619 16.8936 135.673 17.2716C136.824 17.6511 137.634 18.268 138.106 19.1239C138.578 19.9813 138.816 21.0313 138.816 22.2768V24.1783C138.816 25.9814 138.278 27.3543 137.206 28.3C136.132 29.2457 134.537 29.7193 132.418 29.7193H125.791V6.36053H132.15Z" fill="#FEFEFE"/>
<path id="Fill 10" fill-rule="evenodd" clip-rule="evenodd" d="M145.79 16.2038H151.573V19.5406H145.79V26.3821H153.069V29.7189H141.576V6.36011H153.069V9.69687H145.79V16.2038Z" fill="#FEFEFE"/>
<path id="Fill 11" fill-rule="evenodd" clip-rule="evenodd" d="M160.576 22.3108H164.638L162.605 10.4974L160.576 22.3108ZM170.189 29.7186H165.938L165.212 25.481H160.038L159.311 29.7186H155.442L159.733 6.3598H165.901L170.189 29.7186Z" fill="#FEFEFE"/>
<path id="Fill 12" fill-rule="evenodd" clip-rule="evenodd" d="M184.402 21.0421V24.1457C184.402 26.0357 183.871 27.481 182.812 28.4832C181.752 29.4854 180.189 29.9851 178.121 29.9851C176.053 29.9851 174.486 29.4796 173.428 28.4673C172.367 27.455 171.839 26.0038 171.839 24.1124V11.9645C171.839 10.0746 172.367 8.62342 173.428 7.6111C174.486 6.59877 176.053 6.09189 178.121 6.09189C180.189 6.09189 181.752 6.59877 182.812 7.6111C183.871 8.62342 184.402 10.0746 184.402 11.9645V14.2354H180.418V11.7328C180.418 10.887 180.22 10.2918 179.825 9.94712C179.428 9.60244 178.897 9.42865 178.235 9.42865C177.57 9.42865 177.041 9.60244 176.646 9.94857C176.25 10.2947 176.053 10.8899 176.053 11.7372V24.376C176.053 25.2218 176.25 25.8127 176.646 26.1472C177.041 26.4818 177.57 26.6483 178.235 26.6483C178.897 26.6483 179.428 26.4818 179.825 26.1472C180.22 25.8141 180.418 25.2247 180.418 24.3789V21.0421H184.402Z" fill="#FEFEFE"/>
<path id="Fill 13" fill-rule="evenodd" clip-rule="evenodd" d="M191.375 29.719H187.161V6.36023H191.375V16.3705H196.164V6.36023H200.452V29.719H196.164V19.7073H191.375V29.719Z" fill="#FEFEFE"/>
<path id="Fill 14" fill-rule="evenodd" clip-rule="evenodd" d="M222.788 21.0421V24.1457C222.788 26.0357 222.258 27.481 221.198 28.4832C220.138 29.4854 218.574 29.9851 216.506 29.9851C214.438 29.9851 212.873 29.4796 211.814 28.4673C210.753 27.455 210.224 26.0038 210.224 24.1124V11.9645C210.224 10.0746 210.753 8.62342 211.814 7.6111C212.873 6.59877 214.438 6.09189 216.506 6.09189C218.574 6.09189 220.138 6.59877 221.198 7.6111C222.258 8.62342 222.788 10.0746 222.788 11.9645V14.2354H218.804V11.7328C218.804 10.887 218.606 10.2918 218.211 9.94712C217.814 9.60244 217.283 9.42865 216.621 9.42865C215.955 9.42865 215.427 9.60244 215.032 9.94857C214.635 10.2947 214.438 10.8899 214.438 11.7372V24.376C214.438 25.2218 214.635 25.8127 215.032 26.1472C215.427 26.4818 215.955 26.6483 216.621 26.6483C217.283 26.6483 217.814 26.4818 218.211 26.1472C218.606 25.8141 218.804 25.2247 218.804 24.3789V21.0421H222.788Z" fill="#FEFEFE"/>
<path id="Fill 15" fill-rule="evenodd" clip-rule="evenodd" d="M225.547 6.36038H229.761V26.3824H236.694V29.7192H225.547V6.36038Z" fill="#FEFEFE"/>
<path id="Fill 16" fill-rule="evenodd" clip-rule="evenodd" d="M242.974 6.36038V24.4084C242.974 25.2557 243.172 25.8465 243.568 26.1811C243.964 26.5156 244.495 26.6822 245.158 26.6822C245.823 26.6822 246.352 26.5156 246.747 26.1811C247.143 25.8465 247.341 25.2557 247.341 24.4084V6.36038H251.324V24.1463C251.324 26.0377 250.796 27.4889 249.735 28.4997C248.677 29.5121 247.11 30.0189 245.043 30.0189C242.974 30.0189 241.408 29.5121 240.351 28.4997C239.289 27.4889 238.76 26.0377 238.76 24.1463V6.36038H242.974Z" fill="#FEFEFE"/>
<path id="Fill 17" fill-rule="evenodd" clip-rule="evenodd" d="M258.415 19.2065V26.3825H260.827C261.54 26.3825 262.084 26.2146 262.455 25.8815C262.827 25.5469 263.01 24.9473 263.01 24.0784V22.0422C263.01 20.9545 262.799 20.2072 262.377 19.8075C261.958 19.4078 261.261 19.2065 260.291 19.2065H258.415ZM258.415 9.6973V15.8697H260.061C260.852 15.8697 261.471 15.6916 261.917 15.3353C262.366 14.9819 262.588 14.3346 262.588 13.4005V12.0985C262.588 11.2542 262.418 10.6416 262.072 10.2636C261.728 9.88557 261.186 9.6973 260.444 9.6973H258.415ZM260.56 6.36053C262.754 6.36053 264.345 6.80515 265.328 7.69437C266.311 8.58504 266.802 9.93046 266.802 11.7321V12.5677C266.802 13.7683 266.585 14.7589 266.153 15.5366C265.718 16.3158 265.028 16.8936 264.083 17.2716C265.234 17.6511 266.043 18.268 266.516 19.1239C266.987 19.9813 267.224 21.0313 267.224 22.2768V24.1783C267.224 25.9814 266.688 27.3543 265.615 28.3C264.541 29.2457 262.947 29.7193 260.827 29.7193H254.2V6.36053H260.56Z" fill="#FEFEFE"/>
<path id="Fill 18" fill-rule="evenodd" clip-rule="evenodd" d="M128.462 49.2123V38.2259H135.836V40.4605H131.019V42.5402H135.572V44.6662H131.019V46.9472H136.114V49.2123H128.462Z" fill="#FEFEFE"/>
<path id="Fill 19" fill-rule="evenodd" clip-rule="evenodd" d="M144.045 41.0808C143.818 40.7911 143.52 40.5609 143.154 40.39C142.787 40.2191 142.435 40.1336 142.093 40.1336C141.917 40.1336 141.739 40.1496 141.558 40.1814C141.378 40.2118 141.214 40.2712 141.07 40.3596C140.925 40.4479 140.805 40.5609 140.706 40.6999C140.609 40.8389 140.56 41.0185 140.56 41.2358C140.56 41.4226 140.597 41.5775 140.675 41.7006C140.753 41.8266 140.867 41.9338 141.016 42.0265C141.167 42.1206 141.344 42.2061 141.55 42.2843C141.758 42.361 141.989 42.4407 142.248 42.5233C142.62 42.6492 143.007 42.7854 143.41 42.9346C143.814 43.0852 144.179 43.2836 144.509 43.5327C144.842 43.7803 145.113 44.0888 145.33 44.4567C145.547 44.8231 145.655 45.2807 145.655 45.8296C145.655 46.461 145.538 47.0056 145.307 47.4676C145.076 47.9267 144.763 48.3076 144.372 48.6073C143.977 48.9071 143.529 49.1302 143.023 49.275C142.515 49.4198 141.995 49.4922 141.457 49.4922C140.674 49.4922 139.915 49.3546 139.18 49.0809C138.447 48.8057 137.837 48.4162 137.353 47.9078L139.088 46.1395C139.357 46.4712 139.709 46.7478 140.15 46.9694C140.587 47.1924 141.025 47.3039 141.457 47.3039C141.654 47.3039 141.846 47.2836 142.03 47.2416C142.216 47.2011 142.381 47.133 142.52 47.0403C142.659 46.9462 142.77 46.8231 142.852 46.6667C142.933 46.5117 142.977 46.3263 142.977 46.1091C142.977 45.902 142.926 45.7268 142.821 45.5805C142.718 45.4371 142.569 45.3039 142.381 45.1851C142.189 45.0664 141.952 44.9578 141.667 44.8593C141.382 44.7608 141.061 44.6551 140.7 44.5421C140.347 44.4277 140.003 44.293 139.669 44.138C139.332 43.9831 139.033 43.7832 138.771 43.5399C138.508 43.2981 138.294 43.0026 138.135 42.6565C137.976 42.3104 137.895 41.8875 137.895 41.3907C137.895 40.7796 138.018 40.2582 138.267 39.8237C138.515 39.3892 138.839 39.033 139.243 38.7535C139.646 38.474 140.1 38.2698 140.606 38.1409C141.113 38.0105 141.624 37.9453 142.14 37.9453C142.758 37.9453 143.392 38.0612 144.036 38.2871C144.681 38.516 145.248 38.8519 145.734 39.2966L144.045 41.0808Z" fill="#FEFEFE"/>
<path id="Fill 20" fill-rule="evenodd" clip-rule="evenodd" d="M152.287 40.4909V49.2123H149.639V40.4909H146.539V38.2259H155.385V40.4909H152.287Z" fill="#FEFEFE"/>
<path id="Fill 21" fill-rule="evenodd" clip-rule="evenodd" d="M158.53 47.8467C158.53 48.2812 158.377 48.6432 158.073 48.9329C157.769 49.2225 157.405 49.3674 156.98 49.3674C156.763 49.3674 156.561 49.3283 156.368 49.2515C156.178 49.1733 156.01 49.0676 155.865 48.9329C155.719 48.7982 155.608 48.6403 155.526 48.4593C155.44 48.2783 155.4 48.0799 155.4 47.8626C155.4 47.6555 155.44 47.4586 155.526 47.2732C155.608 47.0864 155.719 46.9242 155.865 46.7837C156.01 46.6447 156.178 46.5331 156.368 46.4506C156.561 46.368 156.763 46.326 156.98 46.326C157.405 46.326 157.769 46.4709 158.073 46.7605C158.377 47.0502 158.53 47.4122 158.53 47.8467Z" fill="#FEFEFE"/>
<path id="Fill 22" fill-rule="evenodd" clip-rule="evenodd" d="M164.523 49.2123V47.0428L168.799 43.1716C169.068 42.9124 169.283 42.6488 169.45 42.3794C169.615 42.1115 169.697 41.8117 169.697 41.483C169.697 41.0905 169.574 40.7719 169.325 40.5286C169.078 40.2867 168.747 40.1651 168.334 40.1651C167.9 40.1651 167.547 40.3186 167.273 40.6227C166.999 40.9283 166.837 41.3295 166.785 41.8262L164.292 41.4844C164.354 40.9254 164.506 40.4286 164.747 39.9913C164.99 39.5554 165.296 39.1832 165.669 38.8761C166.042 38.5691 166.467 38.3345 166.947 38.1723C167.429 38.0115 167.936 37.9304 168.472 37.9304C168.98 37.9304 169.471 37.997 169.946 38.1332C170.421 38.2664 170.843 38.4735 171.216 38.753C171.588 39.0325 171.884 39.383 172.105 39.8073C172.328 40.2317 172.439 40.7284 172.439 41.299C172.439 41.6915 172.386 42.0449 172.285 42.3621C172.182 42.6763 172.039 42.9689 171.858 43.2382C171.678 43.5076 171.471 43.7567 171.239 43.9913C171.007 44.2231 170.765 44.4533 170.518 44.6807L167.978 46.9472H172.455V49.2123H164.523Z" fill="#FEFEFE"/>
<path id="Fill 23" fill-rule="evenodd" clip-rule="evenodd" d="M180.494 43.6881C180.494 43.3463 180.473 42.9683 180.432 42.5555C180.392 42.1413 180.314 41.7561 180.201 41.3984C180.087 41.0421 179.923 40.7423 179.712 40.499C179.501 40.2557 179.224 40.1341 178.884 40.1341C178.543 40.1341 178.264 40.2557 178.048 40.499C177.83 40.7423 177.662 41.0421 177.544 41.3984C177.425 41.7561 177.344 42.1413 177.304 42.5555C177.263 42.9683 177.242 43.3463 177.242 43.6881C177.242 44.04 177.263 44.4252 177.304 44.8438C177.344 45.2623 177.425 45.6504 177.544 46.0082C177.662 46.3644 177.83 46.6657 178.048 46.9075C178.264 47.1508 178.543 47.2725 178.884 47.2725C179.224 47.2725 179.501 47.1508 179.712 46.9075C179.923 46.6657 180.087 46.3644 180.201 46.0082C180.314 45.6504 180.392 45.2623 180.432 44.8438C180.473 44.4252 180.494 44.04 180.494 43.6881ZM183.159 43.6881C183.159 44.4643 183.081 45.2029 182.926 45.9068C182.771 46.6106 182.522 47.229 182.183 47.762C181.843 48.2935 181.401 48.7178 180.859 49.0336C180.316 49.3493 179.657 49.5071 178.884 49.5071C178.11 49.5071 177.448 49.3493 176.902 49.0336C176.354 48.7178 175.907 48.2935 175.56 47.762C175.215 47.229 174.965 46.6106 174.808 45.9068C174.654 45.2029 174.577 44.4643 174.577 43.6881C174.577 42.9118 174.654 42.1747 174.808 41.4766C174.965 40.7785 175.215 40.1688 175.56 39.646C175.907 39.1232 176.354 38.7075 176.902 38.3962C177.448 38.0863 178.11 37.9298 178.884 37.9298C179.657 37.9298 180.316 38.0863 180.859 38.3962C181.401 38.7075 181.843 39.1232 182.183 39.646C182.522 40.1688 182.771 40.7785 182.926 41.4766C183.081 42.1747 183.159 42.9118 183.159 43.6881Z" fill="#FEFEFE"/>
<path id="Fill 24" fill-rule="evenodd" clip-rule="evenodd" d="M188.643 49.2123V41.1427L186.597 42.7256L185.25 40.8791L188.857 38.2259H191.229V49.2123H188.643Z" fill="#FEFEFE"/>
<path id="Fill 25" fill-rule="evenodd" clip-rule="evenodd" d="M203.684 46.0202C203.684 46.6198 203.563 47.1397 203.32 47.5785C203.078 48.0173 202.759 48.378 202.367 48.6633C201.974 48.9471 201.534 49.1586 201.043 49.2976C200.553 49.4381 200.054 49.5076 199.55 49.5076C199.054 49.5076 198.571 49.4511 198.101 49.3367C197.631 49.2223 197.202 49.0499 196.814 48.8168C196.425 48.5851 196.089 48.2838 195.799 47.9174C195.51 47.5496 195.292 47.1078 195.149 46.5894L197.566 45.9536C197.667 46.3156 197.88 46.6343 198.199 46.908C198.522 47.1817 198.928 47.3193 199.424 47.3193C199.612 47.3193 199.798 47.2932 199.989 47.2411C200.18 47.1904 200.35 47.1093 200.501 47.0007C200.65 46.8935 200.774 46.7501 200.872 46.5749C200.971 46.3982 201.02 46.181 201.02 45.9232C201.02 45.6422 200.955 45.4105 200.826 45.2237C200.697 45.0383 200.527 44.8906 200.316 44.782C200.102 44.6733 199.863 44.5966 199.594 44.5488C199.325 44.5024 199.058 44.4793 198.788 44.4793H198.092V42.5864H198.85C199.098 42.5864 199.337 42.5676 199.563 42.5314C199.791 42.4952 199.995 42.4286 200.175 42.3286C200.356 42.2287 200.501 42.0969 200.609 41.9304C200.716 41.7638 200.773 41.5451 200.773 41.2743C200.773 40.8789 200.634 40.5777 200.353 40.3691C200.074 40.1606 199.755 40.0563 199.393 40.0563C199.02 40.0563 198.699 40.1678 198.425 40.3909C198.152 40.6139 197.974 40.9093 197.891 41.283L195.474 40.724C195.607 40.2576 195.81 39.8521 196.077 39.506C196.347 39.1599 196.664 38.8702 197.031 38.637C197.397 38.4039 197.797 38.2286 198.233 38.1084C198.665 37.9911 199.109 37.9303 199.563 37.9303C200.048 37.9303 200.521 37.9926 200.982 38.1171C201.44 38.2402 201.85 38.4328 202.211 38.6921C202.574 38.9513 202.866 39.2757 203.087 39.6638C203.308 40.052 203.421 40.5111 203.421 41.0397C203.421 41.6508 203.248 42.1664 202.902 42.585C202.556 43.005 202.114 43.2874 201.576 43.4322V43.4785C201.887 43.5509 202.17 43.6668 202.429 43.8276C202.688 43.9883 202.911 44.1795 203.096 44.4011C203.282 44.6226 203.425 44.8717 203.529 45.1455C203.632 45.4177 203.684 45.7103 203.684 46.0202Z" fill="#FEFEFE"/>
<path id="Fill 26" fill-rule="evenodd" clip-rule="evenodd" d="M27.4803 15.0695C20.4616 15.0695 14.7715 20.7698 14.7715 27.7996C14.7715 34.8309 20.4616 40.5312 27.4803 40.5312C34.4975 40.5312 40.1876 34.8309 40.1876 27.7996C40.1876 20.7698 34.4975 15.0695 27.4803 15.0695ZM27.4803 18.318C32.6991 18.318 36.945 22.5715 36.945 27.7996C36.945 33.0278 32.6991 37.2813 27.4803 37.2813C22.2614 37.2813 18.0141 33.0278 18.0141 27.7996C18.0141 22.5715 22.2614 18.318 27.4803 18.318Z" fill="#FEFEFE"/>
<path id="Fill 27" fill-rule="evenodd" clip-rule="evenodd" d="M25.1429 13.0285H29.8168V0.270935H25.1429V13.0285Z" fill="#FEFEFE"/>
<path id="Fill 28" fill-rule="evenodd" clip-rule="evenodd" d="M25.1429 55.329H29.8168V42.5714H25.1429V55.329Z" fill="#FEFEFE"/>
<path id="Fill 29" fill-rule="evenodd" clip-rule="evenodd" d="M42.2249 30.141H54.9597V25.4589H42.2249V30.141Z" fill="#FEFEFE"/>
<path id="Fill 30" fill-rule="evenodd" clip-rule="evenodd" d="M0 30.141H12.7348V25.4589H0V30.141Z" fill="#FEFEFE"/>
<path id="Fill 31" fill-rule="evenodd" clip-rule="evenodd" d="M41.2831 33.4966L38.8486 37.4938L49.7186 44.1398L52.1545 40.1426L41.2831 33.4966Z" fill="#FEFEFE"/>
<path id="Fill 32" fill-rule="evenodd" clip-rule="evenodd" d="M5.2405 11.4602L2.80457 15.4574L13.6759 22.1034L16.1119 18.1062L5.2405 11.4602Z" fill="#FEFEFE"/>
<path id="Fill 33" fill-rule="evenodd" clip-rule="evenodd" d="M13.6758 33.4966L2.80444 40.1426L5.24038 44.1398L16.1117 37.4938L13.6758 33.4966Z" fill="#FEFEFE"/>
<path id="Fill 34" fill-rule="evenodd" clip-rule="evenodd" d="M49.7186 11.4602L38.8486 18.1062L41.2831 22.1034L52.1545 15.4574L49.7186 11.4602Z" fill="#FEFEFE"/>
<path id="Fill 35" fill-rule="evenodd" clip-rule="evenodd" d="M36.7598 39.5158L32.6888 41.8157L38.9457 52.9281L43.0166 50.6268L36.7598 39.5158Z" fill="#FEFEFE"/>
<path id="Fill 36" fill-rule="evenodd" clip-rule="evenodd" d="M16.0137 2.67258L11.9442 4.97239L18.1996 16.0848L22.2706 13.7835L16.0137 2.67258Z" fill="#FEFEFE"/>
<path id="Fill 37" fill-rule="evenodd" clip-rule="evenodd" d="M18.1991 39.5158L11.9437 50.6268L16.0133 52.9281L22.2701 41.8157L18.1991 39.5158Z" fill="#FEFEFE"/>
<path id="Fill 38" fill-rule="evenodd" clip-rule="evenodd" d="M38.9452 2.67258L32.6884 13.7835L36.7593 16.0848L43.0162 4.97239L38.9452 2.67258Z" fill="#FEFEFE"/>
</g>
</g>
</g>
</g>
</svg>
