<svg width="100" height="100" viewBox="0 0 100 100" fill="none" xmlns="http://www.w3.org/2000/svg">
<g id="icons/email-logo">
<g id="email-logo">
<path id="Shape" fill-rule="evenodd" clip-rule="evenodd" d="M50 0C22.4 0 0 22.4 0 50C0 77.6 22.4 100 50 100C77.6 100 100 77.6 100 50C100 22.4 77.6 0 50 0ZM72 63.5C72 64.6 71.6 65.6 70.8 66.3C70 67.1 69.1 67.5 68 67.5H31.9C30.8 67.5 29.9 67.1 29.1 66.3C28.3 65.5 27.9 64.6 27.9 63.5V43.5C28.6 44.3 29.4 45.1 30.4 45.7C36.3 49.8 40.4 52.7 42.6 54.4C43.5 55.1 44.3 55.7 44.9 56C45.5 56.4 46.3 56.8 47.2 57.2C48.2 57.6 49.1 57.8 49.9 57.8C50.7 57.8 51.6 57.6 52.6 57.2C53.6 56.8 54.3 56.4 54.9 56C55.3391 55.7072 55.8319 55.3609 56.4566 54.9218L56.4567 54.9217L56.4584 54.9205C56.6867 54.7601 56.9326 54.5872 57.2 54.4C60 52.3 64.1 49.4 69.4 45.7C70.3 45 71.2 44.3 71.9 43.5V63.5H72ZM67.8 43.1C69 42.3 70 41.3 70.8 40.1C71.6 39 72 37.7 72 36.5C72 35.4 71.6 34.5 70.8 33.7C70 32.9 69.1 32.5 68 32.5H31.9C30.6 32.5 29.7 32.9 29 33.8C28.3 34.7 28 35.7 28 37C28 38 28.5 39.1 29.6 40.3C30.5 41.5 31.5 42.4 32.5 43.1C33 43.5 34.7 44.7 37.5 46.6C40.3 48.6 42.4 50.1 43.9 51.1C43.94 51.14 44.028 51.196 44.1512 51.2744C44.336 51.392 44.6 51.56 44.9 51.8C45.4 52.2 45.8 52.5 46.2 52.7C46.4422 52.8211 46.6844 52.9789 46.9489 53.1511C47.1211 53.2633 47.3028 53.3817 47.5 53.5L47.5 53.5C48 53.8 48.5 54.1 48.9 54.2L48.9 54.2C49.3 54.3 49.7 54.4 50.1 54.4C50.4 54.4 50.9 54.3 51.3 54.2C51.4267 54.1367 51.5633 54.0734 51.7069 54.0069C52.0166 53.8633 52.3583 53.705 52.7 53.5C52.8972 53.3817 53.0789 53.2633 53.2511 53.1511C53.5156 52.9789 53.7578 52.8211 54 52.7C54.0674 52.655 54.145 52.605 54.2303 52.55C54.5248 52.3601 54.9124 52.1101 55.3 51.8C55.5785 51.6329 55.795 51.4658 55.9666 51.3333C56.1032 51.2278 56.2114 51.1443 56.3 51.1C57.3382 50.3387 59.4781 48.8588 62.7528 46.5942C64.2097 45.5867 65.8911 44.4239 67.8 43.1Z" fill="white"/>
</g>
</g>
</svg>
